<?xml version="1.0" encoding="utf-8"?>
<!-- Generator: Adobe Illustrator 26.5.0, SVG Export Plug-In . SVG Version: 6.00 Build 0)  -->
<svg version="1.1" id="Layer_1" xmlns="http://www.w3.org/2000/svg" xmlns:xlink="http://www.w3.org/1999/xlink" x="0px" y="0px"
	 viewBox="0 0 498.9 498.7" style="enable-background:new 0 0 498.9 498.7;" xml:space="preserve">
<style type="text/css">
	.st0{fill:#0099CC;}
</style>
<path class="st0" d="M249.4,0C111.6,0,0,111.6,0,249.3s111.6,249.3,249.4,249.3S498.7,387,498.7,249.3S387.1,0,249.4,0z
	 M396.2,319.4c0,12.3-3,24.5-8.7,35.4l-122-122l-32.5,32.5l150.3,150.2l-16.1,16.1l0.1,0.1c-23-23-54.1-35.9-86.5-35.9H179
	c-42.2,0-76.5-34.3-76.5-76.5V178.6c0-42.2,34.3-76.5,76.5-76.5h140.8c42.2,0,76.5,34.3,76.5,76.5L396.2,319.4z"/>
</svg>
